<svg xmlns="http://www.w3.org/2000/svg" width="804" height="200" viewBox="0 0 804 200"><defs><linearGradient id="fmbg" x1="0" y1="0" x2="1" y2="1"><stop offset="0" stop-color="#6D28D9"/><stop offset="1" stop-color="#E0359B"/></linearGradient></defs><rect x="0" y="0" width="200" height="200" rx="45" fill="url(#fmbg)"/><g transform="translate(30 30) scale(0.14)"><path d="M110 500 C 190 380 290 270 385 270 C 440 270 475 320 500 360 C 525 320 560 270 615 270 C 710 270 810 380 890 500 C 760 470 640 520 500 520 C 360 520 240 470 110 500 Z" fill="#fff" stroke="#fff" stroke-width="24" stroke-linejoin="round"/><path d="M110 545 C 240 520 360 575 500 575 C 640 575 760 520 890 545 C 810 700 670 800 500 800 C 330 800 190 700 110 545 Z" fill="#fff" stroke="#fff" stroke-width="24" stroke-linejoin="round"/><circle cx="835" cy="250" r="62" fill="#C8FF2E"/></g><path d="M241.90994873046876 150.0V67.41752014160157Q241.90994873046876 52.92750549316406 250.24246520996093 45.843745422363284Q258.5749816894531 38.759985351562506 274.93251647949216 38.759985351562506H285.54502563476564V58.45508422851563H274.24253845214844Q270.54506225585936 58.45508422851563 268.5425750732422 60.46132049560547Q266.540087890625 62.46755676269531 266.540087890625 66.15753479003907V150.0ZM232.519970703125 88.440087890625V69.08997802734375H286.76002197265626V88.440087890625ZM343.5624725341797 150.0V125.71499633789062H339.1674468994141V99.67501831054688Q339.1674468994141 93.84754943847656 336.4599670410156 91.00131683349609Q333.7524871826172 88.15508422851562 327.6400146484375 88.15508422851562Q324.7000366210937 88.15508422851562 319.180029296875 88.30508422851562Q313.66002197265624 88.45508422851563 307.5925018310547 88.74758605957032Q301.5249816894531 89.040087890625 296.51495971679685 89.340087890625V67.04996337890626Q300.09996337890624 66.74996337890626 304.9862289428711 66.4537124633789Q309.87249450683595 66.15746154785157 315.12626190185546 66.01121063232422Q320.38002929687497 65.86495971679688 324.8350402832031 65.86495971679688Q337.5625457763672 65.86495971679688 346.4313095092773 69.57371978759767Q355.30007324218747 73.28247985839845 359.97633514404293 80.73749084472658Q364.6525970458984 88.1925018310547 364.6525970458984 99.72750549316407V150.0ZM317.3124725341797 152.1Q308.59747619628905 152.1 301.858723449707 148.95374908447263Q295.119970703125 145.8074981689453 291.3099670410156 139.88624725341796Q287.4999633789062 133.96499633789062 287.4999633789062 125.71499633789062Q287.4999633789062 116.45248718261719 292.39372711181636 110.68123626708984Q297.28749084472656 104.90998535156251 305.9200073242188 102.19873809814453Q314.5525238037109 99.48749084472657 325.7575347900391 99.48749084472657H342.0924652099609V113.42253112792969H325.7275421142578Q320.02008056640625 113.42253112792969 316.93760070800784 116.26876373291016Q313.85512084960936 119.11499633789063 313.85512084960936 123.86247253417969Q313.85512084960936 128.46744689941406 316.93760070800784 131.3061813354492Q320.02008056640625 134.14491577148436 325.7275421142578 134.14491577148436Q329.40252380371095 134.14491577148436 332.27125091552733 132.8399230957031Q335.1399780273437 131.53493041992186 337.00371246337886 128.3211959838867Q338.86744689941406 125.10746154785156 339.1674468994141 119.44498901367187L345.34747619628905 125.42999267578125Q344.59747619628905 133.97999267578126 341.22247619628905 139.89749450683593Q337.84747619628905 145.81499633789062 331.92247619628904 148.9574981689453Q325.997476196289 152.1 317.3124725341797 152.1ZM379.3949523925781 150.0V67.33496704101563H400.4850769042968V102.82498168945312H399.25508422851556Q399.25508422851556 89.97746887207032 402.5513351440429 81.51746520996093Q405.8475860595703 73.05746154785156 412.37633514404297 68.85371246337891Q418.9050842285156 64.64996337890625 428.24257507324216 64.64996337890625H429.4125823974609Q443.5650695800781 64.64996337890625 451.26757507324214 74.02871246337891Q458.9700805664062 83.40746154785157 458.9700805664062 102.68247985839844V150.0H432.3149230957031V101.82000732421875Q432.3149230957031 95.94005126953125 428.8461959838867 92.16757507324219Q425.37746887207027 88.39509887695313 419.3625091552734 88.39509887695313Q413.33255310058587 88.39509887695313 409.6913314819335 92.17882232666017Q406.0501098632812 95.9625457763672 406.0501098632812 102.15V150.0Z" fill="#FFFFFF"/><path d="M475.6449523925781 150.0V67.33496704101563H496.7350769042968V102.96748352050781H495.50508422851556Q495.50508422851556 90.12746887207032 498.7225860595703 81.66746520996094Q501.94008789062497 73.20746154785157 508.2325897216797 68.9287124633789Q514.5250915527344 64.64996337890625 523.6900878906249 64.64996337890625H524.8600952148437Q534.167593383789 64.64996337890625 540.3925933837891 68.9287124633789Q546.617593383789 73.20746154785157 549.831346130371 81.66746520996094Q553.045098876953 90.12746887207032 553.045098876953 102.96748352050781H546.8500732421875Q546.8500732421875 90.12746887207032 550.0713241577148 81.66746520996094Q553.2925750732421 73.20746154785157 559.5888259887695 68.9287124633789Q565.8850769042969 64.64996337890625 575.0500732421874 64.64996337890625H576.2200805664062Q585.5275787353515 64.64996337890625 591.898829650879 68.9287124633789Q598.2700805664062 73.20746154785157 601.6300842285157 81.66746520996094Q604.990087890625 90.12746887207032 604.990087890625 102.96748352050781V150.0H578.3349304199219V102.0975128173828Q578.3349304199219 96.19506225585937 575.1737014770508 92.29508056640626Q572.0124725341797 88.39509887695313 566.1700073242187 88.39509887695313Q560.3125457763672 88.39509887695313 556.9788223266601 92.31007690429688Q553.645098876953 96.22505493164063 553.645098876953 102.42750549316406V150.0H526.98994140625V102.0975128173828Q526.98994140625 96.19506225585937 523.8287124633789 92.29508056640626Q520.6674835205077 88.39509887695313 514.8250183105469 88.39509887695313Q508.96755676269527 88.39509887695313 505.63383331298826 92.31007690429688Q502.3001098632812 96.22505493164063 502.3001098632812 102.42750549316406V150.0ZM647.444952392578 152.68500366210938Q633.3374542236327 152.68500366210938 625.6162033081054 143.45625457763674Q617.894952392578 134.22750549316407 617.894952392578 115.25248718261719V67.32746887207031H644.5501098632811V116.10746154785156Q644.5501098632811 121.85241394042968 647.9400878906249 125.3961410522461Q651.3300659179687 128.9398681640625 657.0375274658202 128.9398681640625Q662.7599853515624 128.9398681640625 666.3224578857421 125.37364654541015Q669.8849304199218 121.80742492675782 669.8849304199218 115.74747619628906V67.32746887207031H696.5400878906249V150.0H675.4499633789062V115.22249450683594H676.9649597167968Q676.9649597167968 127.92750549316406 673.7437088012695 136.24500732421876Q670.5224578857421 144.56250915527343 664.2262069702148 148.6237564086914Q657.9299560546874 152.68500366210938 648.6149597167968 152.68500366210938ZM763.0624725341796 150.0V125.71499633789062H758.667446899414V99.67501831054688Q758.667446899414 93.84754943847656 755.9599670410155 91.00131683349609Q753.2524871826171 88.15508422851562 747.1400146484374 88.15508422851562Q744.2000366210937 88.15508422851562 738.6800292968749 88.30508422851562Q733.1600219726562 88.45508422851563 727.0925018310546 88.74758605957032Q721.024981689453 89.040087890625 716.0149597167969 89.340087890625V67.04996337890626Q719.5999633789062 66.74996337890626 724.4862289428711 66.4537124633789Q729.3724945068359 66.15746154785157 734.6262619018554 66.01121063232422Q739.8800292968749 65.86495971679688 744.335040283203 65.86495971679688Q757.0625457763671 65.86495971679688 765.9313095092773 69.57371978759767Q774.8000732421874 73.28247985839845 779.4763351440429 80.73749084472658Q784.1525970458983 88.1925018310547 784.1525970458983 99.72750549316407V150.0ZM736.8124725341796 152.1Q728.097476196289 152.1 721.358723449707 148.95374908447263Q714.619970703125 145.8074981689453 710.8099670410156 139.88624725341796Q706.9999633789062 133.96499633789062 706.9999633789062 125.71499633789062Q706.9999633789062 116.45248718261719 711.8937271118164 110.68123626708984Q716.7874908447264 104.90998535156251 725.4200073242187 102.19873809814453Q734.0525238037109 99.48749084472657 745.257534790039 99.48749084472657H761.5924652099609V113.42253112792969H745.2275421142577Q739.5200805664061 113.42253112792969 736.4376007080077 116.26876373291016Q733.3551208496093 119.11499633789063 733.3551208496093 123.86247253417969Q733.3551208496093 128.46744689941406 736.4376007080077 131.3061813354492Q739.5200805664061 134.14491577148436 745.2275421142577 134.14491577148436Q748.9025238037109 134.14491577148436 751.7712509155273 132.8399230957031Q754.6399780273437 131.53493041992186 756.5037124633789 128.3211959838867Q758.367446899414 125.10746154785156 758.667446899414 119.44498901367187L764.847476196289 125.42999267578125Q764.097476196289 133.97999267578126 760.722476196289 139.89749450683593Q757.347476196289 145.81499633789062 751.4224761962889 148.9574981689453Q745.497476196289 152.1 736.8124725341796 152.1Z" fill="#F062C0"/></svg>